<mxfile host="app.diagrams.net" modified="2024-03-27T15:26:30.113Z" agent="Mozilla/5.0 (Windows NT 10.0; Win64; x64) AppleWebKit/537.36 (KHTML, like Gecko) Chrome/123.0.0.0 Safari/537.36" etag="udJFFaIcFXvbJi-vtM3f" version="24.2.0" type="device">
  <diagram name="Page-1" id="Wl4qqZWPlfM1WC1LZrM2">
    <mxGraphModel dx="757" dy="540" grid="1" gridSize="10" guides="1" tooltips="1" connect="1" arrows="1" fold="1" page="1" pageScale="1" pageWidth="850" pageHeight="1100" math="0" shadow="0">
      <root>
        <mxCell id="0" />
        <mxCell id="1" parent="0" />
        <mxCell id="0cN9bVkUMFvqnsQbVNbZ-9" style="edgeStyle=orthogonalEdgeStyle;rounded=0;orthogonalLoop=1;jettySize=auto;html=1;entryX=0;entryY=0.5;entryDx=0;entryDy=0;" edge="1" parent="1" source="0cN9bVkUMFvqnsQbVNbZ-1" target="0cN9bVkUMFvqnsQbVNbZ-5">
          <mxGeometry relative="1" as="geometry" />
        </mxCell>
        <mxCell id="0cN9bVkUMFvqnsQbVNbZ-1" value="Farmer" style="shape=umlActor;verticalLabelPosition=bottom;verticalAlign=top;html=1;outlineConnect=0;" vertex="1" parent="1">
          <mxGeometry x="150" y="330" width="30" height="60" as="geometry" />
        </mxCell>
        <mxCell id="0cN9bVkUMFvqnsQbVNbZ-8" style="edgeStyle=orthogonalEdgeStyle;rounded=0;orthogonalLoop=1;jettySize=auto;html=1;entryX=0;entryY=0.5;entryDx=0;entryDy=0;" edge="1" parent="1" source="0cN9bVkUMFvqnsQbVNbZ-2" target="0cN9bVkUMFvqnsQbVNbZ-5">
          <mxGeometry relative="1" as="geometry" />
        </mxCell>
        <mxCell id="0cN9bVkUMFvqnsQbVNbZ-2" value="Dealer" style="shape=umlActor;verticalLabelPosition=bottom;verticalAlign=top;html=1;outlineConnect=0;" vertex="1" parent="1">
          <mxGeometry x="150" y="200" width="30" height="60" as="geometry" />
        </mxCell>
        <mxCell id="0cN9bVkUMFvqnsQbVNbZ-10" style="edgeStyle=orthogonalEdgeStyle;rounded=0;orthogonalLoop=1;jettySize=auto;html=1;entryX=1;entryY=0.5;entryDx=0;entryDy=0;" edge="1" parent="1" source="0cN9bVkUMFvqnsQbVNbZ-3" target="0cN9bVkUMFvqnsQbVNbZ-5">
          <mxGeometry relative="1" as="geometry" />
        </mxCell>
        <mxCell id="0cN9bVkUMFvqnsQbVNbZ-12" style="edgeStyle=orthogonalEdgeStyle;rounded=0;orthogonalLoop=1;jettySize=auto;html=1;" edge="1" parent="1" source="0cN9bVkUMFvqnsQbVNbZ-3" target="0cN9bVkUMFvqnsQbVNbZ-11">
          <mxGeometry relative="1" as="geometry" />
        </mxCell>
        <mxCell id="0cN9bVkUMFvqnsQbVNbZ-14" style="edgeStyle=orthogonalEdgeStyle;rounded=0;orthogonalLoop=1;jettySize=auto;html=1;entryX=1;entryY=0.5;entryDx=0;entryDy=0;" edge="1" parent="1" source="0cN9bVkUMFvqnsQbVNbZ-3" target="0cN9bVkUMFvqnsQbVNbZ-13">
          <mxGeometry relative="1" as="geometry" />
        </mxCell>
        <mxCell id="0cN9bVkUMFvqnsQbVNbZ-3" value="Customer" style="shape=umlActor;verticalLabelPosition=bottom;verticalAlign=top;html=1;outlineConnect=0;" vertex="1" parent="1">
          <mxGeometry x="510" y="270" width="30" height="60" as="geometry" />
        </mxCell>
        <mxCell id="0cN9bVkUMFvqnsQbVNbZ-7" style="edgeStyle=orthogonalEdgeStyle;rounded=0;orthogonalLoop=1;jettySize=auto;html=1;" edge="1" parent="1" source="0cN9bVkUMFvqnsQbVNbZ-4" target="0cN9bVkUMFvqnsQbVNbZ-6">
          <mxGeometry relative="1" as="geometry">
            <Array as="points">
              <mxPoint x="480" y="100" />
              <mxPoint x="480" y="100" />
            </Array>
          </mxGeometry>
        </mxCell>
        <mxCell id="0cN9bVkUMFvqnsQbVNbZ-4" value="Unregistered&lt;div&gt;User&lt;/div&gt;" style="shape=umlActor;verticalLabelPosition=bottom;verticalAlign=top;html=1;outlineConnect=0;" vertex="1" parent="1">
          <mxGeometry x="510" y="60" width="30" height="60" as="geometry" />
        </mxCell>
        <mxCell id="0cN9bVkUMFvqnsQbVNbZ-5" value="Login" style="ellipse;whiteSpace=wrap;html=1;" vertex="1" parent="1">
          <mxGeometry x="305" y="210" width="95" height="40" as="geometry" />
        </mxCell>
        <mxCell id="0cN9bVkUMFvqnsQbVNbZ-6" value="Register" style="ellipse;whiteSpace=wrap;html=1;" vertex="1" parent="1">
          <mxGeometry x="305" y="80" width="95" height="40" as="geometry" />
        </mxCell>
        <mxCell id="0cN9bVkUMFvqnsQbVNbZ-11" value="View&lt;br&gt;Produce" style="ellipse;whiteSpace=wrap;html=1;" vertex="1" parent="1">
          <mxGeometry x="310" y="290" width="90" height="40" as="geometry" />
        </mxCell>
        <mxCell id="0cN9bVkUMFvqnsQbVNbZ-13" value="Buy&lt;br&gt;Produce" style="ellipse;whiteSpace=wrap;html=1;" vertex="1" parent="1">
          <mxGeometry x="310" y="350" width="90" height="40" as="geometry" />
        </mxCell>
      </root>
    </mxGraphModel>
  </diagram>
</mxfile>
